<?xml version="1.0" encoding="iso-8859-1"?>
<svg fill="#fff" height="800px" width="800px" version="1.1" id="Layer_1" xmlns="http://www.w3.org/2000/svg" xmlns:xlink="http://www.w3.org/1999/xlink" 
	 viewBox="0 0 512 512" xml:space="preserve">
<g>
	<g>
		<path d="M503.467,247.467h-11.793l-14.711-29.414c-1.442-2.893-4.395-4.719-7.629-4.719H457.54l-14.711-29.414
			c-1.442-2.893-4.395-4.719-7.629-4.719h-34.133v-21.333c0-2.355-1.911-4.267-4.267-4.267h-8.533c-2.355,0-4.267,1.911-4.267,4.267
			V179.2h-42.667v-21.333c0-2.355-1.911-4.267-4.267-4.267h-8.533c-2.355,0-4.267,1.911-4.267,4.267V179.2H281.6v-21.333
			c0-2.355-1.911-4.267-4.267-4.267H268.8c-2.355,0-4.267,1.911-4.267,4.267V179.2H230.4c-3.234,0-6.187,1.826-7.629,4.719
			l-14.711,29.414h-71.526c-3.234,0-6.187,1.826-7.637,4.719l-14.703,29.414H8.534c-3.208,0-6.144,1.801-7.603,4.659
			c-1.459,2.859-1.186,6.298,0.708,8.892l68.267,93.867c1.604,2.21,4.156,3.516,6.886,3.516c40.858,0,357.154,0,384.137,0
			c1.254,0,2.449-0.29,3.575-0.845c41.83-20.847,47.488-63.002,47.496-101.495C512,251.332,508.194,247.467,503.467,247.467z
			 M235.674,196.267h194.253l8.533,17.067H227.14L235.674,196.267z M141.807,230.4H464.06l8.533,17.067H133.274L141.807,230.4z
			 M458.727,341.333H81.144l-55.851-76.8h469.513C493.551,305.809,482.808,328.508,458.727,341.333z"/>
	</g>
</g>
<g>
	<g>
		<path d="M106.667,281.6h-8.533c-2.355,0-4.267,1.911-4.267,4.267v8.533c0,2.355,1.911,4.267,4.267,4.267h8.533
			c2.355,0,4.267-1.911,4.267-4.267v-8.533C110.934,283.512,109.022,281.6,106.667,281.6z"/>
	</g>
</g>
<g>
	<g>
		<path d="M140.8,281.6h-8.533c-2.355,0-4.267,1.911-4.267,4.267v8.533c0,2.355,1.911,4.267,4.267,4.267h8.533
			c2.355,0,4.267-1.911,4.267-4.267v-8.533C145.067,283.512,143.155,281.6,140.8,281.6z"/>
	</g>
</g>
<g>
	<g>
		<path d="M174.934,281.6H166.4c-2.355,0-4.267,1.911-4.267,4.267v8.533c0,2.355,1.911,4.267,4.267,4.267h8.533
			c2.355,0,4.267-1.911,4.267-4.267v-8.533C179.2,283.512,177.289,281.6,174.934,281.6z"/>
	</g>
</g>
<g>
	<g>
		<path d="M209.067,281.6h-8.533c-2.355,0-4.267,1.911-4.267,4.267v8.533c0,2.355,1.911,4.267,4.267,4.267h8.533
			c2.355,0,4.267-1.911,4.267-4.267v-8.533C213.334,283.512,211.422,281.6,209.067,281.6z"/>
	</g>
</g>
<g>
	<g>
		<path d="M243.2,281.6h-8.533c-2.355,0-4.267,1.911-4.267,4.267v8.533c0,2.355,1.911,4.267,4.267,4.267h8.533
			c2.355,0,4.267-1.911,4.267-4.267v-8.533C247.467,283.512,245.555,281.6,243.2,281.6z"/>
	</g>
</g>
<g>
	<g>
		<path d="M277.334,281.6H268.8c-2.355,0-4.267,1.911-4.267,4.267v8.533c0,2.355,1.911,4.267,4.267,4.267h8.533
			c2.355,0,4.267-1.911,4.267-4.267v-8.533C281.6,283.512,279.689,281.6,277.334,281.6z"/>
	</g>
</g>
<g>
	<g>
		<path d="M311.467,281.6h-8.533c-2.355,0-4.267,1.911-4.267,4.267v8.533c0,2.355,1.911,4.267,4.267,4.267h8.533
			c2.355,0,4.267-1.911,4.267-4.267v-8.533C315.734,283.512,313.822,281.6,311.467,281.6z"/>
	</g>
</g>
<g>
	<g>
		<path d="M345.6,281.6h-8.533c-2.355,0-4.267,1.911-4.267,4.267v8.533c0,2.355,1.911,4.267,4.267,4.267h8.533
			c2.355,0,4.267-1.911,4.267-4.267v-8.533C349.867,283.512,347.955,281.6,345.6,281.6z"/>
	</g>
</g>
<g>
	<g>
		<path d="M379.734,281.6H371.2c-2.355,0-4.267,1.911-4.267,4.267v8.533c0,2.355,1.911,4.267,4.267,4.267h8.533
			c2.355,0,4.267-1.911,4.267-4.267v-8.533C384,283.512,382.089,281.6,379.734,281.6z"/>
	</g>
</g>
<g>
	<g>
		<path d="M413.867,281.6h-8.533c-2.355,0-4.267,1.911-4.267,4.267v8.533c0,2.355,1.911,4.267,4.267,4.267h8.533
			c2.355,0,4.267-1.911,4.267-4.267v-8.533C418.134,283.512,416.222,281.6,413.867,281.6z"/>
	</g>
</g>
<g>
	<g>
		<path d="M448,281.6h-8.533c-2.355,0-4.267,1.911-4.267,4.267v8.533c0,2.355,1.911,4.267,4.267,4.267H448
			c2.355,0,4.267-1.911,4.267-4.267v-8.533C452.267,283.512,450.355,281.6,448,281.6z"/>
	</g>
</g>
</svg>